<svg width="25" height="25" viewBox="0 0 25 25" fill="none" xmlns="http://www.w3.org/2000/svg">
<g id="Icono Editar">
<path id="Vector" d="M21.6695 7.2406C22.1982 6.71203 22.4953 5.99507 22.4954 5.24746C22.4955 4.49984 22.1986 3.78281 21.67 3.2541C21.1415 2.72539 20.4245 2.42832 19.6769 2.42822C18.9293 2.42813 18.2122 2.72503 17.6835 3.2536L4.33754 16.6026C4.10536 16.8341 3.93365 17.1191 3.83754 17.4326L2.51654 21.7846C2.4907 21.8711 2.48874 21.963 2.51089 22.0505C2.53304 22.138 2.57846 22.2178 2.64234 22.2816C2.70621 22.3454 2.78616 22.3907 2.8737 22.4127C2.96124 22.4347 3.0531 22.4326 3.13954 22.4066L7.49254 21.0866C7.80571 20.9914 8.09071 20.8207 8.32254 20.5896L21.6695 7.2406Z" stroke="#53518C" stroke-width="2" stroke-linecap="round" stroke-linejoin="round"/>
</g>
</svg>
