<svg width="217" height="276" viewBox="0 0 217 276" fill="none" xmlns="http://www.w3.org/2000/svg">
<path d="M40.9109 276C38.7266 276 36.4516 275.766 34.3299 275.322C32.2634 274.889 30.1429 274.217 28.2004 273.378C26.2935 272.554 24.3755 271.491 22.6551 270.303C20.9494 269.126 19.2768 267.717 17.819 266.227C16.3636 264.741 14.9843 263.033 13.8321 261.291C12.67 259.533 11.6282 257.574 10.822 255.626C9.99979 253.639 9.34083 251.474 8.91747 249.361C8.4843 247.196 8.25483 244.872 8.25483 242.64C8.25483 240.409 8.4843 238.084 8.9187 235.915C9.34083 233.807 9.99979 231.641 10.822 229.654C11.6282 227.706 12.6688 225.748 13.8309 223.99C14.0468 223.664 14.2714 223.337 14.4996 223.017C30.6497 200.418 38.9353 172.949 38.0346 144.984C37.1339 117.018 27.1009 90.1644 9.53103 68.6973C8.62665 67.5916 7.77625 66.4384 7.00194 65.2688C5.51958 63.0287 4.24829 60.6357 3.22119 58.1549C2.17568 55.629 1.37192 52.9852 0.833214 50.2989C0.28101 47.5398 0 44.7017 0 41.8612C0 39.0206 0.279783 36.1826 0.831986 33.426C1.37069 30.7371 1.76939 27.3875 2.81489 24.8604C3.76916 22.5537 4.70618 21.2723 6.65338 18.3282C8.10015 16.1408 10.1728 14.1288 12.0012 12.261C13.8296 10.3932 15.9268 8.6257 18.0669 7.14902C20.256 5.63723 22.5986 4.3398 25.0259 3.29058C27.501 2.2213 30.0877 1.40147 32.7174 0.851163C35.4183 0.287064 38.1965 0 40.9772 0C43.7578 0 46.536 0.28581 49.2345 0.84991C51.8679 1.40022 54.4546 2.22004 56.926 3.28807C59.357 4.33855 61.6995 5.63723 63.8899 7.14902C66.0276 8.62445 68.1247 10.392 69.9519 12.2585C71.7717 14.1175 73.4271 16.1583 74.8727 18.3282C96.2343 50.3628 130.902 70.5011 168.775 72.8754C171.205 73.0283 173.625 73.353 175.966 73.8431C179.266 74.5326 182.512 75.5617 185.614 76.903C188.657 78.218 191.595 79.8464 194.344 81.743C197.063 83.6196 199.623 85.7769 201.948 88.1524C204.274 90.5279 206.385 93.1428 208.225 95.9232C210.079 98.7274 211.674 101.728 212.962 104.84C214.273 108.007 215.281 111.322 215.956 114.691C216.649 118.152 217 121.711 217 125.274C217 128.837 216.649 132.394 215.956 135.851C215.28 139.226 214.272 142.54 212.962 145.708C211.673 148.819 210.079 151.819 208.224 154.626C206.384 157.406 204.274 160.02 201.948 162.397C199.623 164.772 197.064 166.93 194.342 168.807C191.595 170.703 188.658 172.331 185.615 173.646C182.512 174.987 179.266 176.017 175.966 176.706C174.471 177.018 172.928 177.266 171.382 177.443C126.538 182.558 88.0593 212.4 71.1864 255.151C71.1263 255.305 71.0612 255.466 70.9937 255.627C70.1875 257.574 69.1469 259.533 67.9836 261.292C66.8313 263.034 65.4533 264.741 63.9967 266.229C62.5401 267.717 60.8688 269.124 59.1643 270.301C57.4414 271.491 55.5235 272.554 53.6153 273.379C51.674 274.217 49.5535 274.889 47.4858 275.322C45.3641 275.766 43.0891 276 40.9048 276H40.9109Z" fill="white"/>
</svg>
