<svg width="181" height="136" viewBox="0 0 181 136" fill="none" xmlns="http://www.w3.org/2000/svg">
<path id="Vector foto de perfil" d="M174.353 87.4478C173.077 89.1215 171.574 90.7344 170.01 92.1101C168.485 93.4516 166.751 94.699 164.999 95.715C163.277 96.7146 161.376 97.5874 159.497 98.2393C158.633 98.5391 157.738 98.8059 156.83 99.0339C138.314 103.675 120.749 111.718 105.034 122.753C103.426 123.881 101.763 124.945 100.092 125.916C96.33 128.1 92.3343 129.933 88.2212 131.36C84.146 132.775 79.9199 133.805 75.6609 134.421C71.4019 135.037 67.0755 135.244 62.8018 135.038C58.4806 134.828 54.1791 134.197 50.0109 133.157C45.7635 132.097 41.6137 130.606 37.6747 128.723C33.6311 126.792 29.7599 124.423 26.1693 121.684C22.5786 118.945 19.2696 115.837 16.3368 112.449C13.4807 109.149 10.9445 105.54 8.80134 101.724C6.69743 97.9781 4.94895 93.9969 3.6077 89.8887C2.27749 85.8163 1.33351 81.589 0.801738 77.3187C0.269963 73.0483 0.145144 68.7015 0.432244 64.3974C0.721908 60.0522 1.43332 55.7141 2.54749 51.5035C3.68171 47.2164 5.24522 43.0144 7.19384 39.0183C9.19401 34.9169 11.6245 30.9797 14.419 27.3162C17.2135 23.6527 20.3673 20.2691 23.794 17.2559C27.1338 14.319 30.7721 11.7016 34.609 9.47413C38.3765 7.28748 42.371 5.45371 46.4851 4.02573C50.5581 2.61138 54.7833 1.58273 59.0423 0.966748C63.3013 0.350771 67.6277 0.143729 71.9014 0.34981C76.2226 0.558901 80.5253 1.19155 84.6945 2.23033C88.9385 3.28906 93.0896 4.781 97.0294 6.66284C101.04 8.57943 104.884 10.929 108.455 13.6433C123.45 25.0439 140.471 33.5085 158.654 38.6095C158.988 38.7041 159.32 38.8023 159.64 38.9021C163.036 39.9747 166.064 41.5477 168.908 43.7167C170.547 44.9675 172.122 46.4463 173.463 47.9942C174.77 49.5052 175.977 51.2229 176.956 52.9647C177.918 54.6773 178.75 56.5723 179.363 58.4485C179.971 60.3112 180.421 62.323 180.664 64.2725C180.907 66.2242 180.965 68.2948 180.835 70.2587C180.702 72.2461 180.364 74.3115 179.856 76.2333C179.337 78.1953 178.593 80.1952 177.703 82.0216C176.789 83.8956 175.632 85.7696 174.355 87.4432L174.353 87.4478Z" fill="#D3CFEE"/>
</svg>
